<svg width="512" height="512" viewBox="0 0 512 512" fill="none" xmlns="http://www.w3.org/2000/svg">
<path d="M249.415 5.67999C250.539 -1.89333 261.461 -1.89333 262.585 5.67999V5.67999C263.65 12.8612 273.806 13.3934 275.617 6.36295V6.36295C277.526 -1.05143 288.389 0.0902893 288.714 7.73959V7.73959C289.023 14.9928 299.068 16.5837 301.603 9.781V9.781C304.277 2.60681 314.961 4.87771 314.486 12.5192V12.5192C314.035 19.765 323.858 22.3971 327.091 15.8966V15.8966C330.499 9.04124 340.887 12.4165 339.616 19.9664V19.9664C338.41 27.1254 347.904 30.7699 351.799 24.6429V24.6429C355.906 18.1814 365.884 22.624 363.83 29.9996V29.9996C361.883 36.9934 370.944 41.6104 375.457 35.924V35.924C380.217 29.9272 389.676 35.3884 386.863 42.509V42.509C384.195 49.2609 392.724 54.7997 397.807 49.6163V49.6163C403.168 44.1499 412.004 50.57 408.462 57.3574V57.3574C405.103 63.7934 413.006 70.1935 418.603 65.5698V65.5698C424.506 60.6936 432.623 68.0022 428.39 74.3822V74.3822C424.377 80.4318 431.568 87.623 437.618 83.6096V83.6096C443.998 79.3772 451.306 87.4942 446.43 93.3968V93.3968C441.807 98.9938 448.207 106.897 454.643 103.538V103.538C461.43 99.9959 467.85 108.832 462.384 114.193V114.193C457.2 119.276 462.739 127.805 469.491 125.137V125.137C476.612 122.324 482.073 131.783 476.076 136.543V136.543C470.39 141.056 475.007 150.117 482 148.17V148.17C489.376 146.116 493.819 156.094 487.357 160.201V160.201C481.23 164.096 484.875 173.59 492.034 172.384V172.384C499.584 171.113 502.959 181.501 496.103 184.91V184.91C489.603 188.142 492.235 197.965 499.481 197.514V197.514C507.122 197.039 509.393 207.723 502.219 210.397V210.397C495.416 212.932 497.007 222.976 504.26 223.286V223.286C511.91 223.611 513.051 234.474 505.637 236.383V236.383C498.607 238.194 499.139 248.35 506.32 249.415V249.415C513.893 250.539 513.893 261.461 506.32 262.585V262.585C499.139 263.65 498.607 273.806 505.637 275.617V275.617C513.051 277.526 511.91 288.389 504.26 288.714V288.714C497.007 289.023 495.416 299.068 502.219 301.603V301.603C509.393 304.277 507.122 314.961 499.481 314.486V314.486C492.235 314.035 489.603 323.858 496.103 327.091V327.091C502.959 330.499 499.584 340.887 492.034 339.616V339.616C484.875 338.41 481.23 347.904 487.357 351.799V351.799C493.819 355.906 489.376 365.884 482 363.83V363.83C475.007 361.883 470.39 370.944 476.076 375.457V375.457C482.073 380.217 476.612 389.676 469.491 386.863V386.863C462.739 384.195 457.2 392.724 462.384 397.807V397.807C467.85 403.168 461.43 412.004 454.643 408.462V408.462C448.207 405.103 441.807 413.006 446.43 418.603V418.603C451.306 424.506 443.998 432.623 437.618 428.39V428.39C431.568 424.377 424.377 431.568 428.39 437.618V437.618C432.623 443.998 424.506 451.306 418.603 446.43V446.43C413.006 441.807 405.103 448.207 408.462 454.643V454.643C412.004 461.43 403.168 467.85 397.807 462.384V462.384C392.724 457.2 384.195 462.739 386.863 469.491V469.491C389.676 476.612 380.217 482.073 375.457 476.076V476.076C370.944 470.39 361.883 475.007 363.83 482V482C365.884 489.376 355.906 493.819 351.799 487.357V487.357C347.904 481.23 338.41 484.875 339.616 492.034V492.034C340.887 499.584 330.499 502.959 327.091 496.103V496.103C323.858 489.603 314.035 492.235 314.486 499.481V499.481C314.961 507.122 304.277 509.393 301.603 502.219V502.219C299.068 495.416 289.023 497.007 288.714 504.26V504.26C288.389 511.91 277.526 513.051 275.617 505.637V505.637C273.806 498.607 263.65 499.139 262.585 506.32V506.32C261.461 513.893 250.539 513.893 249.415 506.32V506.32C248.35 499.139 238.194 498.607 236.383 505.637V505.637C234.474 513.051 223.611 511.91 223.286 504.26V504.26C222.976 497.007 212.932 495.416 210.397 502.219V502.219C207.723 509.393 197.039 507.122 197.514 499.481V499.481C197.965 492.235 188.142 489.603 184.91 496.103V496.103C181.501 502.959 171.113 499.584 172.384 492.034V492.034C173.59 484.875 164.096 481.23 160.201 487.357V487.357C156.094 493.819 146.116 489.376 148.17 482V482C150.117 475.007 141.056 470.39 136.543 476.076V476.076C131.783 482.073 122.324 476.612 125.137 469.491V469.491C127.805 462.739 119.276 457.2 114.193 462.384V462.384C108.832 467.85 99.9959 461.43 103.538 454.643V454.643C106.897 448.207 98.9938 441.807 93.3968 446.43V446.43C87.4942 451.306 79.3772 443.998 83.6096 437.618V437.618C87.623 431.568 80.4318 424.377 74.3822 428.39V428.39C68.0022 432.623 60.6936 424.506 65.5698 418.603V418.603C70.1935 413.006 63.7934 405.103 57.3574 408.462V408.462C50.57 412.004 44.1499 403.168 49.6163 397.807V397.807C54.7997 392.724 49.2609 384.195 42.509 386.863V386.863C35.3884 389.676 29.9272 380.217 35.924 375.457V375.457C41.6104 370.944 36.9934 361.883 29.9996 363.83V363.83C22.624 365.884 18.1814 355.906 24.6429 351.799V351.799C30.7699 347.904 27.1254 338.41 19.9664 339.616V339.616C12.4165 340.887 9.04123 330.499 15.8966 327.091V327.091C22.3971 323.858 19.765 314.035 12.5192 314.486V314.486C4.87771 314.961 2.60681 304.277 9.781 301.603V301.603C16.5837 299.068 14.9928 289.023 7.73959 288.714V288.714C0.0902937 288.389 -1.05143 277.526 6.36294 275.617V275.617C13.3934 273.806 12.8612 263.65 5.67999 262.585V262.585C-1.89333 261.461 -1.89333 250.539 5.67999 249.415V249.415C12.8612 248.35 13.3934 238.194 6.36295 236.383V236.383C-1.05142 234.474 0.0902717 223.611 7.73957 223.286V223.286C14.9928 222.976 16.5837 212.932 9.78098 210.397V210.397C2.60678 207.723 4.87771 197.039 12.5192 197.514V197.514C19.765 197.965 22.3971 188.142 15.8967 184.91V184.91C9.04126 181.501 12.4165 171.113 19.9664 172.384V172.384C27.1254 173.59 30.7699 164.096 24.6429 160.201V160.201C18.1814 156.094 22.624 146.116 29.9996 148.17V148.17C36.9934 150.117 41.6104 141.056 35.924 136.543V136.543C29.9272 131.783 35.3884 122.324 42.509 125.137V125.137C49.2609 127.805 54.7997 119.276 49.6163 114.193V114.193C44.1499 108.832 50.57 99.9959 57.3574 103.538V103.538C63.7934 106.897 70.1935 98.9938 65.5698 93.3968V93.3968C60.6936 87.4942 68.0022 79.3772 74.3822 83.6096V83.6096C80.4318 87.623 87.623 80.4318 83.6096 74.3822V74.3822C79.3772 68.0022 87.4942 60.6936 93.3968 65.5698V65.5698C98.9938 70.1935 106.897 63.7934 103.538 57.3574V57.3574C99.9959 50.57 108.832 44.1499 114.193 49.6163V49.6163C119.276 54.7997 127.805 49.2609 125.137 42.509V42.509C122.324 35.3884 131.783 29.9272 136.543 35.924V35.924C141.056 41.6104 150.117 36.9934 148.17 29.9996V29.9996C146.116 22.624 156.094 18.1814 160.201 24.6429V24.6429C164.096 30.7699 173.59 27.1254 172.384 19.9664V19.9664C171.113 12.4165 181.501 9.04126 184.91 15.8967V15.8967C188.142 22.3971 197.965 19.765 197.514 12.5192V12.5192C197.039 4.87772 207.723 2.60678 210.397 9.78098V9.78098C212.932 16.5837 222.976 14.9928 223.286 7.73957V7.73957C223.611 0.0902717 234.474 -1.05143 236.383 6.36295V6.36295C238.194 13.3934 248.35 12.8612 249.415 5.67999V5.67999Z" fill="url(#paint0_linear_336_5144)"/>
<path d="M249.415 5.67999C250.539 -1.89333 261.461 -1.89333 262.585 5.67999V5.67999C263.65 12.8612 273.806 13.3934 275.617 6.36295V6.36295C277.526 -1.05143 288.389 0.0902893 288.714 7.73959V7.73959C289.023 14.9928 299.068 16.5837 301.603 9.781V9.781C304.277 2.60681 314.961 4.87771 314.486 12.5192V12.5192C314.035 19.765 323.858 22.3971 327.091 15.8966V15.8966C330.499 9.04124 340.887 12.4165 339.616 19.9664V19.9664C338.41 27.1254 347.904 30.7699 351.799 24.6429V24.6429C355.906 18.1814 365.884 22.624 363.83 29.9996V29.9996C361.883 36.9934 370.944 41.6104 375.457 35.924V35.924C380.217 29.9272 389.676 35.3884 386.863 42.509V42.509C384.195 49.2609 392.724 54.7997 397.807 49.6163V49.6163C403.168 44.1499 412.004 50.57 408.462 57.3574V57.3574C405.103 63.7934 413.006 70.1935 418.603 65.5698V65.5698C424.506 60.6936 432.623 68.0022 428.39 74.3822V74.3822C424.377 80.4318 431.568 87.623 437.618 83.6096V83.6096C443.998 79.3772 451.306 87.4942 446.43 93.3968V93.3968C441.807 98.9938 448.207 106.897 454.643 103.538V103.538C461.43 99.9959 467.85 108.832 462.384 114.193V114.193C457.2 119.276 462.739 127.805 469.491 125.137V125.137C476.612 122.324 482.073 131.783 476.076 136.543V136.543C470.39 141.056 475.007 150.117 482 148.17V148.17C489.376 146.116 493.819 156.094 487.357 160.201V160.201C481.23 164.096 484.875 173.59 492.034 172.384V172.384C499.584 171.113 502.959 181.501 496.103 184.91V184.91C489.603 188.142 492.235 197.965 499.481 197.514V197.514C507.122 197.039 509.393 207.723 502.219 210.397V210.397C495.416 212.932 497.007 222.976 504.26 223.286V223.286C511.91 223.611 513.051 234.474 505.637 236.383V236.383C498.607 238.194 499.139 248.35 506.32 249.415V249.415C513.893 250.539 513.893 261.461 506.32 262.585V262.585C499.139 263.65 498.607 273.806 505.637 275.617V275.617C513.051 277.526 511.91 288.389 504.26 288.714V288.714C497.007 289.023 495.416 299.068 502.219 301.603V301.603C509.393 304.277 507.122 314.961 499.481 314.486V314.486C492.235 314.035 489.603 323.858 496.103 327.091V327.091C502.959 330.499 499.584 340.887 492.034 339.616V339.616C484.875 338.41 481.23 347.904 487.357 351.799V351.799C493.819 355.906 489.376 365.884 482 363.83V363.83C475.007 361.883 470.39 370.944 476.076 375.457V375.457C482.073 380.217 476.612 389.676 469.491 386.863V386.863C462.739 384.195 457.2 392.724 462.384 397.807V397.807C467.85 403.168 461.43 412.004 454.643 408.462V408.462C448.207 405.103 441.807 413.006 446.43 418.603V418.603C451.306 424.506 443.998 432.623 437.618 428.39V428.39C431.568 424.377 424.377 431.568 428.39 437.618V437.618C432.623 443.998 424.506 451.306 418.603 446.43V446.43C413.006 441.807 405.103 448.207 408.462 454.643V454.643C412.004 461.43 403.168 467.85 397.807 462.384V462.384C392.724 457.2 384.195 462.739 386.863 469.491V469.491C389.676 476.612 380.217 482.073 375.457 476.076V476.076C370.944 470.39 361.883 475.007 363.83 482V482C365.884 489.376 355.906 493.819 351.799 487.357V487.357C347.904 481.23 338.41 484.875 339.616 492.034V492.034C340.887 499.584 330.499 502.959 327.091 496.103V496.103C323.858 489.603 314.035 492.235 314.486 499.481V499.481C314.961 507.122 304.277 509.393 301.603 502.219V502.219C299.068 495.416 289.023 497.007 288.714 504.26V504.26C288.389 511.91 277.526 513.051 275.617 505.637V505.637C273.806 498.607 263.65 499.139 262.585 506.32V506.32C261.461 513.893 250.539 513.893 249.415 506.32V506.32C248.35 499.139 238.194 498.607 236.383 505.637V505.637C234.474 513.051 223.611 511.91 223.286 504.26V504.26C222.976 497.007 212.932 495.416 210.397 502.219V502.219C207.723 509.393 197.039 507.122 197.514 499.481V499.481C197.965 492.235 188.142 489.603 184.91 496.103V496.103C181.501 502.959 171.113 499.584 172.384 492.034V492.034C173.59 484.875 164.096 481.23 160.201 487.357V487.357C156.094 493.819 146.116 489.376 148.17 482V482C150.117 475.007 141.056 470.39 136.543 476.076V476.076C131.783 482.073 122.324 476.612 125.137 469.491V469.491C127.805 462.739 119.276 457.2 114.193 462.384V462.384C108.832 467.85 99.9959 461.43 103.538 454.643V454.643C106.897 448.207 98.9938 441.807 93.3968 446.43V446.43C87.4942 451.306 79.3772 443.998 83.6096 437.618V437.618C87.623 431.568 80.4318 424.377 74.3822 428.39V428.39C68.0022 432.623 60.6936 424.506 65.5698 418.603V418.603C70.1935 413.006 63.7934 405.103 57.3574 408.462V408.462C50.57 412.004 44.1499 403.168 49.6163 397.807V397.807C54.7997 392.724 49.2609 384.195 42.509 386.863V386.863C35.3884 389.676 29.9272 380.217 35.924 375.457V375.457C41.6104 370.944 36.9934 361.883 29.9996 363.83V363.83C22.624 365.884 18.1814 355.906 24.6429 351.799V351.799C30.7699 347.904 27.1254 338.41 19.9664 339.616V339.616C12.4165 340.887 9.04123 330.499 15.8966 327.091V327.091C22.3971 323.858 19.765 314.035 12.5192 314.486V314.486C4.87771 314.961 2.60681 304.277 9.781 301.603V301.603C16.5837 299.068 14.9928 289.023 7.73959 288.714V288.714C0.0902937 288.389 -1.05143 277.526 6.36294 275.617V275.617C13.3934 273.806 12.8612 263.65 5.67999 262.585V262.585C-1.89333 261.461 -1.89333 250.539 5.67999 249.415V249.415C12.8612 248.35 13.3934 238.194 6.36295 236.383V236.383C-1.05142 234.474 0.0902717 223.611 7.73957 223.286V223.286C14.9928 222.976 16.5837 212.932 9.78098 210.397V210.397C2.60678 207.723 4.87771 197.039 12.5192 197.514V197.514C19.765 197.965 22.3971 188.142 15.8967 184.91V184.91C9.04126 181.501 12.4165 171.113 19.9664 172.384V172.384C27.1254 173.59 30.7699 164.096 24.6429 160.201V160.201C18.1814 156.094 22.624 146.116 29.9996 148.17V148.17C36.9934 150.117 41.6104 141.056 35.924 136.543V136.543C29.9272 131.783 35.3884 122.324 42.509 125.137V125.137C49.2609 127.805 54.7997 119.276 49.6163 114.193V114.193C44.1499 108.832 50.57 99.9959 57.3574 103.538V103.538C63.7934 106.897 70.1935 98.9938 65.5698 93.3968V93.3968C60.6936 87.4942 68.0022 79.3772 74.3822 83.6096V83.6096C80.4318 87.623 87.623 80.4318 83.6096 74.3822V74.3822C79.3772 68.0022 87.4942 60.6936 93.3968 65.5698V65.5698C98.9938 70.1935 106.897 63.7934 103.538 57.3574V57.3574C99.9959 50.57 108.832 44.1499 114.193 49.6163V49.6163C119.276 54.7997 127.805 49.2609 125.137 42.509V42.509C122.324 35.3884 131.783 29.9272 136.543 35.924V35.924C141.056 41.6104 150.117 36.9934 148.17 29.9996V29.9996C146.116 22.624 156.094 18.1814 160.201 24.6429V24.6429C164.096 30.7699 173.59 27.1254 172.384 19.9664V19.9664C171.113 12.4165 181.501 9.04126 184.91 15.8967V15.8967C188.142 22.3971 197.965 19.765 197.514 12.5192V12.5192C197.039 4.87772 207.723 2.60678 210.397 9.78098V9.78098C212.932 16.5837 222.976 14.9928 223.286 7.73957V7.73957C223.611 0.0902717 234.474 -1.05143 236.383 6.36295V6.36295C238.194 13.3934 248.35 12.8612 249.415 5.67999V5.67999Z" fill="url(#paint1_radial_336_5144)"/>
<path d="M249.415 5.67999C250.539 -1.89333 261.461 -1.89333 262.585 5.67999V5.67999C263.65 12.8612 273.806 13.3934 275.617 6.36295V6.36295C277.526 -1.05143 288.389 0.0902893 288.714 7.73959V7.73959C289.023 14.9928 299.068 16.5837 301.603 9.781V9.781C304.277 2.60681 314.961 4.87771 314.486 12.5192V12.5192C314.035 19.765 323.858 22.3971 327.091 15.8966V15.8966C330.499 9.04124 340.887 12.4165 339.616 19.9664V19.9664C338.41 27.1254 347.904 30.7699 351.799 24.6429V24.6429C355.906 18.1814 365.884 22.624 363.83 29.9996V29.9996C361.883 36.9934 370.944 41.6104 375.457 35.924V35.924C380.217 29.9272 389.676 35.3884 386.863 42.509V42.509C384.195 49.2609 392.724 54.7997 397.807 49.6163V49.6163C403.168 44.1499 412.004 50.57 408.462 57.3574V57.3574C405.103 63.7934 413.006 70.1935 418.603 65.5698V65.5698C424.506 60.6936 432.623 68.0022 428.39 74.3822V74.3822C424.377 80.4318 431.568 87.623 437.618 83.6096V83.6096C443.998 79.3772 451.306 87.4942 446.43 93.3968V93.3968C441.807 98.9938 448.207 106.897 454.643 103.538V103.538C461.43 99.9959 467.85 108.832 462.384 114.193V114.193C457.2 119.276 462.739 127.805 469.491 125.137V125.137C476.612 122.324 482.073 131.783 476.076 136.543V136.543C470.39 141.056 475.007 150.117 482 148.17V148.17C489.376 146.116 493.819 156.094 487.357 160.201V160.201C481.23 164.096 484.875 173.59 492.034 172.384V172.384C499.584 171.113 502.959 181.501 496.103 184.91V184.91C489.603 188.142 492.235 197.965 499.481 197.514V197.514C507.122 197.039 509.393 207.723 502.219 210.397V210.397C495.416 212.932 497.007 222.976 504.26 223.286V223.286C511.91 223.611 513.051 234.474 505.637 236.383V236.383C498.607 238.194 499.139 248.35 506.32 249.415V249.415C513.893 250.539 513.893 261.461 506.32 262.585V262.585C499.139 263.65 498.607 273.806 505.637 275.617V275.617C513.051 277.526 511.91 288.389 504.26 288.714V288.714C497.007 289.023 495.416 299.068 502.219 301.603V301.603C509.393 304.277 507.122 314.961 499.481 314.486V314.486C492.235 314.035 489.603 323.858 496.103 327.091V327.091C502.959 330.499 499.584 340.887 492.034 339.616V339.616C484.875 338.41 481.23 347.904 487.357 351.799V351.799C493.819 355.906 489.376 365.884 482 363.83V363.83C475.007 361.883 470.39 370.944 476.076 375.457V375.457C482.073 380.217 476.612 389.676 469.491 386.863V386.863C462.739 384.195 457.2 392.724 462.384 397.807V397.807C467.85 403.168 461.43 412.004 454.643 408.462V408.462C448.207 405.103 441.807 413.006 446.43 418.603V418.603C451.306 424.506 443.998 432.623 437.618 428.39V428.39C431.568 424.377 424.377 431.568 428.39 437.618V437.618C432.623 443.998 424.506 451.306 418.603 446.43V446.43C413.006 441.807 405.103 448.207 408.462 454.643V454.643C412.004 461.43 403.168 467.85 397.807 462.384V462.384C392.724 457.2 384.195 462.739 386.863 469.491V469.491C389.676 476.612 380.217 482.073 375.457 476.076V476.076C370.944 470.39 361.883 475.007 363.83 482V482C365.884 489.376 355.906 493.819 351.799 487.357V487.357C347.904 481.23 338.41 484.875 339.616 492.034V492.034C340.887 499.584 330.499 502.959 327.091 496.103V496.103C323.858 489.603 314.035 492.235 314.486 499.481V499.481C314.961 507.122 304.277 509.393 301.603 502.219V502.219C299.068 495.416 289.023 497.007 288.714 504.26V504.26C288.389 511.91 277.526 513.051 275.617 505.637V505.637C273.806 498.607 263.65 499.139 262.585 506.32V506.32C261.461 513.893 250.539 513.893 249.415 506.32V506.32C248.35 499.139 238.194 498.607 236.383 505.637V505.637C234.474 513.051 223.611 511.91 223.286 504.26V504.26C222.976 497.007 212.932 495.416 210.397 502.219V502.219C207.723 509.393 197.039 507.122 197.514 499.481V499.481C197.965 492.235 188.142 489.603 184.91 496.103V496.103C181.501 502.959 171.113 499.584 172.384 492.034V492.034C173.59 484.875 164.096 481.23 160.201 487.357V487.357C156.094 493.819 146.116 489.376 148.17 482V482C150.117 475.007 141.056 470.39 136.543 476.076V476.076C131.783 482.073 122.324 476.612 125.137 469.491V469.491C127.805 462.739 119.276 457.2 114.193 462.384V462.384C108.832 467.85 99.9959 461.43 103.538 454.643V454.643C106.897 448.207 98.9938 441.807 93.3968 446.43V446.43C87.4942 451.306 79.3772 443.998 83.6096 437.618V437.618C87.623 431.568 80.4318 424.377 74.3822 428.39V428.39C68.0022 432.623 60.6936 424.506 65.5698 418.603V418.603C70.1935 413.006 63.7934 405.103 57.3574 408.462V408.462C50.57 412.004 44.1499 403.168 49.6163 397.807V397.807C54.7997 392.724 49.2609 384.195 42.509 386.863V386.863C35.3884 389.676 29.9272 380.217 35.924 375.457V375.457C41.6104 370.944 36.9934 361.883 29.9996 363.83V363.83C22.624 365.884 18.1814 355.906 24.6429 351.799V351.799C30.7699 347.904 27.1254 338.41 19.9664 339.616V339.616C12.4165 340.887 9.04123 330.499 15.8966 327.091V327.091C22.3971 323.858 19.765 314.035 12.5192 314.486V314.486C4.87771 314.961 2.60681 304.277 9.781 301.603V301.603C16.5837 299.068 14.9928 289.023 7.73959 288.714V288.714C0.0902937 288.389 -1.05143 277.526 6.36294 275.617V275.617C13.3934 273.806 12.8612 263.65 5.67999 262.585V262.585C-1.89333 261.461 -1.89333 250.539 5.67999 249.415V249.415C12.8612 248.35 13.3934 238.194 6.36295 236.383V236.383C-1.05142 234.474 0.0902717 223.611 7.73957 223.286V223.286C14.9928 222.976 16.5837 212.932 9.78098 210.397V210.397C2.60678 207.723 4.87771 197.039 12.5192 197.514V197.514C19.765 197.965 22.3971 188.142 15.8967 184.91V184.91C9.04126 181.501 12.4165 171.113 19.9664 172.384V172.384C27.1254 173.59 30.7699 164.096 24.6429 160.201V160.201C18.1814 156.094 22.624 146.116 29.9996 148.17V148.17C36.9934 150.117 41.6104 141.056 35.924 136.543V136.543C29.9272 131.783 35.3884 122.324 42.509 125.137V125.137C49.2609 127.805 54.7997 119.276 49.6163 114.193V114.193C44.1499 108.832 50.57 99.9959 57.3574 103.538V103.538C63.7934 106.897 70.1935 98.9938 65.5698 93.3968V93.3968C60.6936 87.4942 68.0022 79.3772 74.3822 83.6096V83.6096C80.4318 87.623 87.623 80.4318 83.6096 74.3822V74.3822C79.3772 68.0022 87.4942 60.6936 93.3968 65.5698V65.5698C98.9938 70.1935 106.897 63.7934 103.538 57.3574V57.3574C99.9959 50.57 108.832 44.1499 114.193 49.6163V49.6163C119.276 54.7997 127.805 49.2609 125.137 42.509V42.509C122.324 35.3884 131.783 29.9272 136.543 35.924V35.924C141.056 41.6104 150.117 36.9934 148.17 29.9996V29.9996C146.116 22.624 156.094 18.1814 160.201 24.6429V24.6429C164.096 30.7699 173.59 27.1254 172.384 19.9664V19.9664C171.113 12.4165 181.501 9.04126 184.91 15.8967V15.8967C188.142 22.3971 197.965 19.765 197.514 12.5192V12.5192C197.039 4.87772 207.723 2.60678 210.397 9.78098V9.78098C212.932 16.5837 222.976 14.9928 223.286 7.73957V7.73957C223.611 0.0902717 234.474 -1.05143 236.383 6.36295V6.36295C238.194 13.3934 248.35 12.8612 249.415 5.67999V5.67999Z" fill="url(#paint2_radial_336_5144)"/>
<defs>
<linearGradient id="paint0_linear_336_5144" x1="370.38" y1="56.6781" x2="227.652" y2="488.334" gradientUnits="userSpaceOnUse">
<stop stop-color="#FEBDEF"/>
<stop offset="0.742218" stop-color="white" stop-opacity="0.68"/>
<stop offset="1" stop-color="#E1E3F8"/>
</linearGradient>
<radialGradient id="paint1_radial_336_5144" cx="0" cy="0" r="1" gradientUnits="userSpaceOnUse" gradientTransform="translate(6.65105 149.025) rotate(36.9022) scale(258.863)">
<stop stop-color="#FE81B1"/>
<stop offset="1" stop-color="#FF4D8D" stop-opacity="0"/>
</radialGradient>
<radialGradient id="paint2_radial_336_5144" cx="0" cy="0" r="1" gradientUnits="userSpaceOnUse" gradientTransform="translate(463.141 252.619) rotate(162.052) scale(250.886)">
<stop stop-color="#D592DE"/>
<stop offset="1" stop-color="#FBA4FF" stop-opacity="0"/>
</radialGradient>
</defs>
</svg>
